<?xml version="1.0" encoding="UTF-8"?>
<svg width="256px" height="259px" viewBox="0 0 256 259" version="1.1" xmlns="http://www.w3.org/2000/svg">
    <g fill="#FFFFFF">
        <path d="M127.778579,0 C60.4203546,0 5.24030561,52.412282 0,119.013983 L68.7236558,147.68805 C74.5451924,143.665561 81.5845466,141.322185 89.1497766,141.322185 C89.8324924,141.322185 90.5059824,141.340637 91.1702465,141.377541 L121.735621,96.668877 L121.735621,96.0415165 C121.735621,69.1388208 143.425688,47.2457835 170.088511,47.2457835 C196.751333,47.2457835 218.441401,69.1388208 218.441401,96.0415165 C218.441401,122.944212 196.751333,144.846475 170.088511,144.846475 C169.719475,144.846475 169.359666,144.83725 168.99063,144.828024 L125.398299,176.205276 C125.425977,176.786507 125.444428,177.367738 125.444428,177.939743 C125.444428,198.144443 109.160732,214.575753 89.1497766,214.575753 C71.5836817,214.575753 56.8868387,201.917832 53.5655182,185.163615 L4.40997549,164.654462 C19.6326942,218.967277 69.0834655,258.786219 127.778579,258.786219 C198.596511,258.786219 256,201.0689 256,129.817435 C256,58.5752033 198.596511,0 127.778579,0 Z M80.3519677,196.332478 L64.6033732,189.763644 C67.389126,197.984894 74.2942424,204.111413 82.7016213,204.917331 C99.149652,206.647417 113.321627,193.691084 111.587674,177.13576 C110.717005,168.792606 105.628799,161.599534 98.1895445,157.92511 C90.8960503,154.327019 82.3615879,154.817725 75.5181737,159.068366 L91.8734955,165.882609 C103.791467,171.350371 108.613592,185.470627 103.174765,197.48751 C97.7359392,209.504392 83.7501775,214.371744 71.8321072,208.903982 L80.3519677,196.332478 Z M170.088511,135.405738 C191.353981,135.405738 208.52986,118.07093 208.52986,96.0415165 C208.52986,74.0121026 191.353981,56.6772949 170.088511,56.6772949 C148.814815,56.6772949 131.638936,74.0121026 131.638936,96.0415165 C131.638936,118.07093 148.814815,135.405738 170.088511,135.405738 Z M170.088511,69.0987139 C184.416969,69.0987139 195.979366,80.7912714 195.979366,95.2981677 C195.979366,109.804288 184.416969,121.487622 170.088511,121.487622 C155.751827,121.487622 144.189431,109.804288 144.189431,95.2981677 C144.189431,80.7912714 155.751827,69.0987139 170.088511,69.0987139 Z"></path>
    </g>
</svg>
